<?xml version="1.0" encoding="utf-8"?>
<!-- Generator: Adobe Illustrator 23.1.0, SVG Export Plug-In . SVG Version: 6.00 Build 0)  -->
<svg version="1.1" id="Layer_1" xmlns="http://www.w3.org/2000/svg" xmlns:xlink="http://www.w3.org/1999/xlink" x="0px" y="0px"
	 viewBox="0 0 879 573" style="enable-background:new 0 0 879 573;" xml:space="preserve">
<style type="text/css">
	.st0{fill:#65C2F8;}
	.st1{fill:#09314C;}
	.st2{fill:#C7EEFF;}
	.st3{fill:#66C2F8;}
	.st4{opacity:0.37;enable-background:new    ;}
	.st5{fill:#FFFFFF;}
	.st6{fill:#88D7FF;}
</style>
<g>
	<path class="st0" d="M489.01,234.25c-24.4,0-44.25-19.85-44.25-44.25s19.85-44.25,44.25-44.25s44.25,19.85,44.25,44.25
		S513.41,234.25,489.01,234.25z M489.01,156.19c-18.64,0-33.81,15.17-33.81,33.81s15.17,33.81,33.81,33.81s33.81-15.17,33.81-33.81
		S507.65,156.19,489.01,156.19z"/>
</g>
<g>
	<path class="st1" d="M488.37,257.66l-36.98-11.42l9.76-31.6c3.02-9.78,13.4-15.26,23.18-12.24l1.56,0.48
		c9.78,3.02,15.26,13.4,12.24,23.18L488.37,257.66z"/>
</g>
<g>
	<ellipse class="st2" cx="433.46" cy="496.06" rx="135.92" ry="12.7"/>
</g>
<g>
	<path class="st3" d="M545.55,85.85l-9.21-7.56l1.95-11.75l11.15-4.2l9.21,7.57l-1.95,11.75L545.55,85.85z M539.05,77.28l6.97,5.72
		l8.45-3.17l1.47-8.91l-6.97-5.73l-8.45,3.18L539.05,77.28z"/>
</g>
<g>
	<path class="st3" d="M783.81,245.98l-13.78-7.95l13.78-7.97V245.98z M775.03,238.02l6.28,3.63v-7.26L775.03,238.02z"/>
</g>
<g>
	<polygon class="st1" points="206.22,140.28 203.72,140.16 204.18,130.91 193.27,130.38 193.76,120.29 184.72,119.84 184.84,117.34 
		196.38,117.91 195.89,128 206.8,128.53 	"/>
</g>
<g>
	
		<rect x="72.58" y="263.7" transform="matrix(0.6888 -0.7249 0.7249 0.6888 -174.4142 138.247)" class="st3" width="2.5" height="17.19"/>
</g>
<g>
	<path class="st1" d="M184.78,497.17v-45.3H80.06V415.1l87-136.89h64.34v132.62h28.23v41.04H231.4v45.3H184.78z M184.78,319.57
		l-59.09,91.26h59.09V319.57z"/>
</g>
<g>
	<path class="st1" d="M702.69,497.17v-45.3H597.97V415.1l87-136.89h64.34v132.62h28.23v41.04h-28.23v45.3H702.69z M702.69,319.57
		l-59.09,91.26h59.09V319.57z"/>
</g>
<g>
	<circle class="st0" cx="433.46" cy="365.97" r="130.07"/>
</g>
<g>
	<path class="st3" d="M303.42,299.38l-2.23-1.14c20.16-39.48,56.65-67.67,100.11-77.35l0.54,2.44
		C359.12,232.85,323.24,260.56,303.42,299.38z"/>
</g>
<g>
	<path class="st3" d="M548.47,460.08l-1.93-1.58c11.96-14.6,20.87-31.23,26.49-49.43c1.54-4.97,2.82-10.07,3.82-15.15l2.45,0.48
		c-1.01,5.17-2.32,10.35-3.88,15.41C569.69,428.32,560.63,445.23,548.47,460.08z"/>
</g>
<g class="st4">
	<path class="st2" d="M471.85,241.69c-1.18-0.37-2.37-0.7-3.56-1.03c12,8.76,20.97,21.4,29.53,33.28
		c3.86,5.36,7.81,10.62,11.09,16.36c4.65,8.13,8.55,17.02,10.88,26.1c2.32,9.04,0.89,17.89-3.4,26.01
		c-4.13,7.81-12.01,12.87-20.17,15.51c-4.49,1.41-8.97,1.61-13.46,0.6c-0.9-0.04-1.78-0.13-2.66-0.26
		c-1.06,7.19-2.5,14.33-4.43,21.28c-1.51,5.46-3.44,10.79-5.58,16.03c-0.92,2.25-1.85,4.49-2.8,6.73c0.88,0.12,1.76,0.24,2.64,0.35
		c8.61,1.96,15.53,8.31,20.17,15.51c2.47,3.87,3.8,8.06,4.01,12.55c1,4.49,0.8,8.97-0.6,13.46c-1.04,4.39-3.06,8.22-6.04,11.48
		c-2.38,3.68-5.54,6.57-9.47,8.69c-10.46,4.52-19.99,10.75-29.71,16.63c-9.14,5.53-18.66,10.48-28.64,14.33
		c60.66,6.54,119.41-30.48,138.09-90.96C578.94,335.72,540.49,262.89,471.85,241.69z"/>
</g>
<g>
	<circle class="st1" cx="433.46" cy="365.97" r="104.21"/>
	<path class="st5" d="M433.46,475.4c-60.34,0-109.43-49.09-109.43-109.43s49.09-109.43,109.43-109.43s109.43,49.09,109.43,109.43
		S493.8,475.4,433.46,475.4z M433.46,266.98c-54.58,0-98.99,44.41-98.99,98.99s44.41,98.99,98.99,98.99s98.99-44.41,98.99-98.99
		S488.04,266.98,433.46,266.98z"/>
</g>
<g>
	
		<rect x="450.94" y="269.92" transform="matrix(0.2951 -0.9555 0.9555 0.2951 64.0971 634.3716)" class="st5" width="22.07" height="7.66"/>
</g>
<g>
	
		<rect x="394.1" y="453.92" transform="matrix(0.2951 -0.9555 0.9555 0.2951 -151.7819 709.7725)" class="st5" width="22.07" height="7.66"/>
</g>
<g>
	
		<rect x="521.69" y="383.16" transform="matrix(0.2951 -0.9555 0.9555 0.2951 -6.1999 779.9958)" class="st5" width="7.66" height="22.07"/>
</g>
<g>
	
		<rect x="337.7" y="326.32" transform="matrix(0.2951 -0.9555 0.9555 0.2951 -81.5827 564.128)" class="st5" width="7.66" height="22.07"/>
</g>
<g>
	<g>
		<polygon class="st6" points="506.8,322.93 429.63,351.34 440.16,371.3 		"/>
	</g>
	<g>
		<polygon class="st5" points="362.99,399.71 440.16,371.3 429.63,351.34 		"/>
	</g>
</g>
</svg>
